# xmcd
#
# Track frame offsets:
#	150
#	18600
#	31950
#	49800
#	63300
#	78000
#	97425
#	124800
#	140400
#	156825
#	170925
#
# Disc length: 2653 seconds
#
# Revision: 0
# Processed by: cddbd v1.5.1PL2 Copyright (c) Steve Scherf et al.
# Submitted via: EasyCDDAExtractor 9.0.0.1
#
DISCID=990a5b0b
DTITLE=Μαρίκα Νίνου - Η Μαρίκα Νίνου... μια βραδυά στου Τζίμη του Χοντρού
DYEAR=1900
DGENRE=
TTITLE0=Γκιουλμπαχάρ
TTITLE1=Βαλεντίνα
TTITLE2=Τα λερωμένα τ' άπλυτα
TTITLE3=Βόλο - Λάρισα - Καρδίτσα
TTITLE4=Σεράχ
TTITLE5=Μεσ' της ζωής τα μονοπάτια
TTITLE6=Αμανές
TTITLE7=Παλαμάκια
TTITLE8=Τα καβουράκια
TTITLE9=Τα μάνταλα
TTITLE10=Ο μπουφετζής
EXTD=
EXTT0=
EXTT1=
EXTT2=
EXTT3=
EXTT4=
EXTT5=
EXTT6=
EXTT7=
EXTT8=
EXTT9=
EXTT10=
PLAYORDER=
